<svg xmlns="http://www.w3.org/2000/svg" viewBox="0 0 820 530" width="100%" role="img" aria-label="Maximum power over time — TIRF-STORM (at 5 V)" style="max-width:100%;height:auto;font-family:system-ui,-apple-system,Segoe UI,Roboto,sans-serif">
<style>.hp-bg{fill:#fff}.hp-fg{fill:#222}.hp-ax{stroke:#666}.hp-gr{stroke:#ddd}@media (prefers-color-scheme:dark){.hp-bg{fill:#0d1117}.hp-fg{fill:#e6edf3}.hp-ax{stroke:#8b949e}.hp-gr{stroke:#30363d}}</style>
<rect class="hp-bg" x="0" y="0" width="820" height="530"/>
<text class="hp-fg" x="410" y="26" text-anchor="middle" font-size="16" font-weight="600">Maximum power over time — TIRF-STORM (at 5 V)</text>
<line class="hp-gr" x1="92" y1="400.0" x2="790" y2="400.0" stroke-dasharray="3 3"/>
<text class="hp-fg" x="83" y="404.0" text-anchor="end" font-size="11">0</text>
<line class="hp-gr" x1="92" y1="320.9" x2="790" y2="320.9" stroke-dasharray="3 3"/>
<text class="hp-fg" x="83" y="324.9" text-anchor="end" font-size="11">20</text>
<line class="hp-gr" x1="92" y1="241.8" x2="790" y2="241.8" stroke-dasharray="3 3"/>
<text class="hp-fg" x="83" y="245.8" text-anchor="end" font-size="11">40</text>
<line class="hp-gr" x1="92" y1="162.7" x2="790" y2="162.7" stroke-dasharray="3 3"/>
<text class="hp-fg" x="83" y="166.7" text-anchor="end" font-size="11">60</text>
<line class="hp-gr" x1="92" y1="83.6" x2="790" y2="83.6" stroke-dasharray="3 3"/>
<text class="hp-fg" x="83" y="87.6" text-anchor="end" font-size="11">80</text>
<line class="hp-ax" x1="92" y1="52" x2="92" y2="400"/>
<line class="hp-ax" x1="92" y1="400" x2="790" y2="400"/>
<text class="hp-fg" x="18" y="226" font-size="12" text-anchor="middle" transform="rotate(-90 18 226)">Power (mW)</text>
<line class="hp-gr" x1="92.0" y1="52" x2="92.0" y2="400" stroke-dasharray="3 3"/>
<text class="hp-fg" x="92.0" y="416" font-size="11" text-anchor="end" transform="rotate(-40 92.0 416)">2026-07-28 17:56</text>
<line class="hp-gr" x1="790.0" y1="52" x2="790.0" y2="400" stroke-dasharray="3 3"/>
<text class="hp-fg" x="790.0" y="416" font-size="11" text-anchor="end" transform="rotate(-40 790.0 416)">2026-08-04 15:51</text>
<polyline fill="none" stroke="#1f77b4" stroke-width="2" points="92.0,391.3 790.0,392.2"/>
<circle cx="92.0" cy="391.3" r="3.5" fill="#1f77b4"><title>405-DAPI: 2.2 mW on 2026-07-28 17:56</title></circle>
<circle cx="790.0" cy="392.2" r="3.5" fill="#1f77b4"><title>405-DAPI: 1.974 mW on 2026-08-04 15:51</title></circle>
<polyline fill="none" stroke="#2ca02c" stroke-width="2" points="92.0,329.6 790.0,329.2"/>
<circle cx="92.0" cy="329.6" r="3.5" fill="#2ca02c"><title>488: 17.8 mW on 2026-07-28 17:56</title></circle>
<circle cx="790.0" cy="329.2" r="3.5" fill="#2ca02c"><title>488: 17.9 mW on 2026-08-04 15:51</title></circle>
<polyline fill="none" stroke="#ff7f0e" stroke-width="2" points="92.0,226.2 790.0,165.7"/>
<circle cx="92.0" cy="226.2" r="3.5" fill="#ff7f0e"><title>561: 43.93 mW on 2026-07-28 17:56</title></circle>
<circle cx="790.0" cy="165.7" r="3.5" fill="#ff7f0e"><title>561: 59.23 mW on 2026-08-04 15:51</title></circle>
<polyline fill="none" stroke="#d62728" stroke-width="2" points="92.0,80.3 790.0,52.0"/>
<circle cx="92.0" cy="80.3" r="3.5" fill="#d62728"><title>647: 80.82 mW on 2026-07-28 17:56</title></circle>
<circle cx="790.0" cy="52.0" r="3.5" fill="#d62728"><title>647: 87.99 mW on 2026-08-04 15:51</title></circle>
<line x1="92" y1="501" x2="108" y2="501" stroke="#1f77b4" stroke-width="2"/>
<circle cx="100" cy="501" r="3.5" fill="#1f77b4"/>
<text class="hp-fg" x="114" y="505" font-size="11">405-DAPI</text>
<line x1="325" y1="501" x2="341" y2="501" stroke="#2ca02c" stroke-width="2"/>
<circle cx="333" cy="501" r="3.5" fill="#2ca02c"/>
<text class="hp-fg" x="347" y="505" font-size="11">488</text>
<line x1="557" y1="501" x2="573" y2="501" stroke="#ff7f0e" stroke-width="2"/>
<circle cx="565" cy="501" r="3.5" fill="#ff7f0e"/>
<text class="hp-fg" x="579" y="505" font-size="11">561</text>
<line x1="92" y1="518" x2="108" y2="518" stroke="#d62728" stroke-width="2"/>
<circle cx="100" cy="518" r="3.5" fill="#d62728"/>
<text class="hp-fg" x="114" y="522" font-size="11">647</text>
</svg>